# xmcd CD database file
#
# Track frame offsets:
#	150
#	6967
#	22585
#	37525
#	64897
#	93157
#
# Disc length: 1581 seconds
#
# Revision: 0
# Processed by: cddbd v1.5.1PL0 Copyright (c) Steve Scherf et al.
# Submitted via: CDex 1.51
#
DISCID=32062b06
DTITLE=メリーゴーランド - 69
DYEAR=1998
DGENRE=Rock
TTITLE0=#69
TTITLE1=G.O.D
TTITLE2=禁じられた遊び
TTITLE3=ラ・リ・ル・レ・ロ
TTITLE4=月と、黒猫と、猫アレルギーの君
TTITLE5=桜の満開の木の下で
EXTD=YEAR: 1998
EXTT0=
EXTT1=
EXTT2=
EXTT3=
EXTT4=
EXTT5=
PLAYORDER=
